<svg xmlns="http://www.w3.org/2000/svg" viewBox="0 0 1000 750"><path fill="#fff" d="M0 0h1000v750H0z"/><!--! Font Awesome Pro 6.3.0 by @fontawesome - https://fontawesome.com License - https://fontawesome.com/license (Commercial License) Copyright 2023 Fonticons, Inc.--><path fill="#f0f0f0" d="M551.2 170.2h-128c-14.16 0-25.6 11.44-25.6 25.6s11.44 25.6 25.6 25.6v106.24c0 9.44-2.64 18.8-7.6 26.8l-86.56 140.72c-5.36 8.8-8.24 18.8-8.24 29.12 0 30.64 24.88 55.52 55.52 55.52h247.36c30.64 0 55.52-24.88 55.52-55.52 0-10.24-2.88-20.32-8.24-29.12L584.4 354.52c-4.96-8.08-7.6-17.36-7.6-26.8V221.4c14.16 0 25.6-11.44 25.6-25.6s-11.44-25.6-25.6-25.6zm-76.8 157.44V221.4h51.2v106.24c0 18.96 5.28 37.52 15.2 53.68l27.6 44.88H431.6l27.6-44.88c9.92-16.16 15.2-34.72 15.2-53.68"/></svg>